
<svg width="512px" height="512px" viewBox="0 0 512 512" version="1.1" xmlns="http://www.w3.org/2000/svg" xmlns:xlink="http://www.w3.org/1999/xlink">
    <g id="Page-1" stroke="none" stroke-width="1" fill="none" fill-rule="evenodd">
        <g id="Concept-3" fill-rule="nonzero">
            <path d="M104,0 L512,0 L512,408 C512,465.437614 465.437614,512 408,512 L0,512 L0,104 C-7.03407901e-15,46.562386 46.562386,1.05511185e-14 104,0 Z" id="Original-Copy" fill="#38C172" transform="translate(256.000000, 256.000000) scale(-1, 1) translate(-256.000000, -256.000000) "></path>
            <path d="M105,292 L407,292 C426.329966,292 442,307.670034 442,327 L442,407 C442,426.329966 426.329966,442 407,442 L70,442 L70,327 C70,307.670034 85.6700338,292 105,292 Z" id="Original-Copy-2" fill="#FFFFFF" transform="translate(256.000000, 367.000000) scale(-1, 1) translate(-256.000000, -367.000000) "></path>
            <path d="M105,70 L442,70 L442,185 C442,204.329966 426.329966,220 407,220 L105,220 C85.6700338,220 70,204.329966 70,185 L70,105 C70,85.6700338 85.6700338,70 105,70 Z" id="Original-Copy-3" fill="#FFFFFF" transform="translate(256.000000, 145.000000) scale(-1, 1) translate(-256.000000, -145.000000) "></path>
        </g>
    </g>
</svg>